<?xml version="1.0" standalone="no"?>
<!DOCTYPE svg PUBLIC "-//W3C//DTD SVG 20010904//EN"
 "http://www.w3.org/TR/2001/REC-SVG-20010904/DTD/svg10.dtd">
<svg version="1.0" xmlns="http://www.w3.org/2000/svg"
 width="8000.000000pt" height="6188.000000pt" viewBox="0 0 8000.000000 6188.000000"
 preserveAspectRatio="xMidYMid meet">
<metadata>
Created by potrace 1.15, written by Peter Selinger 2001-2017
</metadata>
<g transform="translate(0.000000,6188.000000) scale(0.100000,-0.100000)"
fill="#000000" stroke="none">
<path d="M0 39138 c0 -14987 4 -22818 10 -22963 42 -932 147 -1789 326 -2667
725 -3568 2594 -6804 5339 -9248 1522 -1355 3306 -2437 5217 -3164 3956 -1504
8411 -1458 12329 127 1011 409 1943 894 2873 1495 l179 116 18 -23 c11 -13 25
-21 34 -17 31 11 17017 13526 17145 13641 1458 1305 3257 2174 5177 2500 853
146 1778 184 2643 110 1957 -169 3829 -891 5388 -2079 62 -47 121 -86 130 -86
9 0 94 -61 187 -136 2180 -1737 4928 -2971 7925 -3559 2666 -523 5518 -524
8180 -4 2517 492 4814 1416 6832 2750 l68 44 0 22953 0 22952 -40000 0 -40000
0 0 -22742z"/>
</g>
</svg>
